<?xml version="1.0" encoding="UTF-8"?>
<svg width="800" height="1200" xmlns="http://www.w3.org/2000/svg">
  <defs>
    <style>
      .box { fill: #f8f9fa; stroke: #343a40; stroke-width: 2; rx: 8; }
      .decision { fill: #fff3cd; stroke: #856404; stroke-width: 2; }
      .process { fill: #d1ecf1; stroke: #0c5460; stroke-width: 2; rx: 8; }
      .terminal { fill: #d4edda; stroke: #155724; stroke-width: 2; rx: 8; }
      .error { fill: #f8d7da; stroke: #721c24; stroke-width: 2; rx: 8; }
      .text { font-family: Arial, sans-serif; font-size: 12px; text-anchor: middle; }
      .title { font-family: Arial, sans-serif; font-size: 14px; font-weight: bold; text-anchor: middle; }
      .arrow { stroke: #343a40; stroke-width: 2; fill: none; marker-end: url(#arrowhead); }
      .yes { fill: #28a745; font-weight: bold; }
      .no { fill: #dc3545; font-weight: bold; }
    </style>
    <marker id="arrowhead" markerWidth="10" markerHeight="7" refX="9" refY="3.5" orient="auto">
      <polygon points="0 0, 10 3.5, 0 7" fill="#343a40" />
    </marker>
  </defs>
  
  <!-- Title -->
  <text x="400" y="30" class="title" style="font-size: 18px;">VSCode/Cursor Plugin Detection Script Flowchart</text>
  
  <!-- Start -->
  <rect x="350" y="50" width="100" height="40" class="terminal"/>
  <text x="400" y="75" class="text">Start</text>
  
  <!-- Check Environment Variables -->
  <polygon points="300,120 500,120 520,150 500,180 300,180 280,150" class="decision"/>
  <text x="400" y="145" class="text">Check environment variables</text>
  <text x="400" y="160" class="text">(CURSOR_TRACE_ID, TERM_PROGRAM)</text>
  
  <!-- In Editor Terminal? -->
  <polygon points="300,220 500,220 520,250 500,280 300,280 280,250" class="decision"/>
  <text x="400" y="245" class="text">In editor</text>
  <text x="400" y="260" class="text">integrated terminal?</text>
  
  <!-- Detect Current Editor -->
  <rect x="320" y="320" width="160" height="40" class="process"/>
  <text x="400" y="345" class="text">Detect current editor environment</text>
  
  <!-- Detect Active Editors -->
  <rect x="80" y="320" width="160" height="40" class="process"/>
  <text x="160" y="335" class="text">Detect active editor processes</text>
  <text x="160" y="350" class="text">(ps aux)</text>
  
  <!-- Multiple Editors? -->
  <polygon points="300,400 500,400 520,430 500,460 300,460 280,430" class="decision"/>
  <text x="400" y="425" class="text">Multiple detected</text>
  <text x="400" y="440" class="text">editors?</text>
  
  <!-- Check All Editors -->
  <rect x="80" y="500" width="160" height="40" class="process"/>
  <text x="160" y="515" class="text">Check all editors</text>
  <text x="160" y="530" class="text">plugin status</text>
  
  <!-- Check Single Editor -->
  <rect x="560" y="500" width="160" height="40" class="process"/>
  <text x="640" y="515" class="text">Check single editor</text>
  <text x="640" y="530" class="text">plugin status</text>
  
  <!-- Get Extensions List -->
  <rect x="320" y="580" width="160" height="40" class="process"/>
  <text x="400" y="595" class="text">Get extension list</text>
  <text x="400" y="610" class="text">(--list-extensions)</text>
  
  <!-- Check Required Extensions -->
  <polygon points="300,660 500,660 520,690 500,720 300,720 280,690" class="decision"/>
  <text x="400" y="685" class="text">All required extensions</text>
  <text x="400" y="700" class="text">installed?</text>
  
  <!-- All Installed -->
  <rect x="120" y="760" width="160" height="40" class="terminal"/>
  <text x="200" y="775" class="text">✅ Show success message</text>
  <text x="200" y="790" class="text">Extensions installed</text>
  
  <!-- Missing Extensions -->
  <rect x="520" y="760" width="160" height="40" class="error"/>
  <text x="600" y="775" class="text">❌ Show missing extensions</text>
  <text x="600" y="790" class="text">Provide installation commands</text>
  
  <!-- Show Installation Commands -->
  <rect x="520" y="840" width="160" height="60" class="process"/>
  <text x="600" y="860" class="text">Generate install commands</text>
  <text x="600" y="875" class="text">Handle path quotes</text>
  <text x="600" y="890" class="text">Support bulk installation</text>
  
  <!-- End Success -->
  <rect x="120" y="940" width="160" height="40" class="terminal"/>
  <text x="200" y="965" class="text">End (exit code 0)</text>
  
  <!-- End Error -->
  <rect x="520" y="940" width="160" height="40" class="terminal"/>
  <text x="600" y="965" class="text">End (exit code 1)</text>
  
  <!-- Arrows -->
  <line x1="400" y1="90" x2="400" y2="120" class="arrow"/>
  <line x1="400" y1="180" x2="400" y2="220" class="arrow"/>
  
  <!-- Yes - In Editor -->
  <line x1="420" y1="280" x2="420" y2="320" class="arrow"/>
  <text x="440" y="305" class="yes">Yes</text>
  
  <!-- No - Not In Editor -->
  <line x1="280" y1="250" x2="160" y2="250" class="arrow"/>
  <line x1="160" y1="250" x2="160" y2="320" class="arrow"/>
  <text x="220" y="245" class="no">No</text>
  
  <line x1="400" y1="360" x2="400" y2="400" class="arrow"/>
  <line x1="160" y1="360" x2="160" y2="430" class="arrow"/>
  <line x1="160" y1="430" x2="280" y2="430" class="arrow"/>
  
  <!-- Yes - Multiple Editors -->
  <line x1="280" y1="430" x2="160" y2="430" class="arrow"/>
  <line x1="160" y1="430" x2="160" y2="500" class="arrow"/>
  <text x="220" y="425" class="yes">Yes</text>
  
  <!-- No - Single Editor -->
  <line x1="520" y1="430" x2="640" y2="430" class="arrow"/>
  <line x1="640" y1="430" x2="640" y2="500" class="arrow"/>
  <text x="580" y="425" class="no">No</text>
  
  <line x1="160" y1="540" x2="160" y2="690" class="arrow"/>
  <line x1="160" y1="690" x2="280" y2="690" class="arrow"/>
  <line x1="640" y1="540" x2="640" y2="690" class="arrow"/>
  <line x1="640" y1="690" x2="520" y2="690" class="arrow"/>
  
  <line x1="400" y1="620" x2="400" y2="660" class="arrow"/>
  
  <!-- Yes - All Installed -->
  <line x1="320" y1="690" x2="200" y2="690" class="arrow"/>
  <line x1="200" y1="690" x2="200" y2="760" class="arrow"/>
  <text x="260" y="685" class="yes">Yes</text>
  
  <!-- No - Missing Extensions -->
  <line x1="520" y1="690" x2="600" y2="690" class="arrow"/>
  <line x1="600" y1="690" x2="600" y2="760" class="arrow"/>
  <text x="560" y="685" class="no">No</text>
  
  <line x1="200" y1="800" x2="200" y2="940" class="arrow"/>
  <line x1="600" y1="800" x2="600" y2="840" class="arrow"/>
  <line x1="600" y1="900" x2="600" y2="940" class="arrow"/>
  
  <!-- Legend -->
  <rect x="50" y="1020" width="700" height="150" fill="none" stroke="#343a40" stroke-width="1"/>
  <text x="400" y="1040" class="title">Legend</text>
  
  <rect x="70" y="1050" width="80" height="25" class="terminal"/>
  <text x="110" y="1067" class="text">Start / End</text>
  
  <rect x="170" y="1050" width="80" height="25" class="process"/>
  <text x="210" y="1067" class="text">Process</text>
  
  <polygon points="270,1050 330,1050 340,1062.5 330,1075 270,1075 260,1062.5" class="decision"/>
  <text x="300" y="1067" class="text">Decision</text>
  
  <rect x="360" y="1050" width="80" height="25" class="terminal"/>
  <text x="400" y="1067" class="text">Success</text>
  
  <rect x="460" y="1050" width="80" height="25" class="error"/>
  <text x="500" y="1067" class="text">Error</text>
  
  <!-- Key Features -->
  <text x="70" y="1100" class="text" style="text-anchor: start; font-weight: bold;">Key Features:</text>
  <text x="70" y="1120" class="text" style="text-anchor: start;">• Smart environment detection: distinguish integrated and normal terminals</text>
  <text x="70" y="1135" class="text" style="text-anchor: start;">• Multi-editor support: detect VSCode, Cursor, WindSurf</text>
  <text x="70" y="1150" class="text" style="text-anchor: start;">• Path conflict resolution: handle `code` command issues</text>
  <text x="70" y="1165" class="text" style="text-anchor: start;">• Precise install guide: generate ready-to-run install commands</text>
</svg> 